<svg xmlns="http://www.w3.org/2000/svg" viewBox="0 0 255.14 303.72"><defs><style>.cls-1{fill:#d4de4e;}.cls-1,.cls-2,.cls-3,.cls-4,.cls-5,.cls-6,.cls-7{stroke:#473421;stroke-width:8px;}.cls-1,.cls-4,.cls-5,.cls-6,.cls-7{stroke-miterlimit:10;}.cls-2{fill:#fff;}.cls-2,.cls-3{stroke-linecap:round;stroke-linejoin:round;}.cls-3,.cls-7{fill:none;}.cls-4{fill:#b49c74;}.cls-5{fill:#d9c397;}.cls-6{fill:#78604f;}</style></defs><title>Ресурс 9</title><g id="Слой_2" data-name="Слой 2"><g id="Слой_1-2" data-name="Слой 1"><path class="cls-1" d="M220,86.27s2.27,28.94,31,21.47C250.91,107.74,248.79,78.06,220,86.27Z"/><path class="cls-1" d="M219.79,88.35s30.08-1.91,22.78-31.8C242.57,56.54,211.71,58.28,219.79,88.35Z"/><path class="cls-1" d="M114.84,93.65S84.73,95,91.5,125C91.5,125,122.37,123.85,114.84,93.65Z"/><line class="cls-2" x1="177.84" y1="72.42" x2="191.58" y2="81.9"/><path class="cls-1" d="M175.92,71.82s-.46-30.13-30.67-24.28C145.25,47.54,145.51,78.44,175.92,71.82Z"/><line class="cls-3" x1="192.44" y1="128.18" x2="219.48" y2="89.22"/><polyline class="cls-4" points="50.12 184.27 50.1 252.68 110.36 297.39 112.88 299.29 192.1 274.69 192.1 204.31 151.8 171.84 112.15 224.6"/><rect class="cls-5" x="62.9" y="142.62" width="75.35" height="69.81" transform="translate(124.27 -25.13) rotate(36.2)"/><polygon class="cls-6" points="68.69 219.41 68.45 244.74 89.92 260.25 90.17 234.92 68.69 219.41"/><polygon class="cls-6" points="167.51 281.84 168.11 232.87 139.62 240.65 139.47 291.01 167.51 281.84"/><line class="cls-7" x1="109.77" y1="228.18" x2="191.24" y2="204.17"/><line class="cls-7" x1="75.76" y1="145.84" x2="138.41" y2="189.99"/><line class="cls-7" x1="63.43" y1="165.24" x2="125.08" y2="208.19"/><line class="cls-7" x1="49.6" y1="205.92" x2="111.25" y2="248.88"/><line class="cls-7" x1="50.73" y1="233.1" x2="112.37" y2="276.05"/><line class="cls-2" x1="192" y1="45.61" x2="192" y2="272.95"/><path class="cls-1" d="M191.69,47.32s25.23-16.48-.07-41.75C191.61,5.57,168.26,27.49,191.69,47.32Z"/><line class="cls-2" x1="33.58" y1="172.56" x2="110.07" y2="227.08"/><path class="cls-1" d="M34.7,173.47S34.24,143.34,4,149.2C4,149.2,4.28,180.1,34.7,173.47Z"/><line class="cls-2" x1="51.02" y1="110.06" x2="50.12" y2="252.29"/><path class="cls-1" d="M51.17,111.38s23.07-17.61-3-40.09C48.15,71.29,27.27,94,51.17,111.38Z"/><path class="cls-1" d="M49.1,114S51.78,85.09,17.57,89C17.57,89,20.12,119.79,49.1,114Z"/><line class="cls-7" x1="112.24" y1="226.6" x2="112.24" y2="297.36"/></g></g></svg>