<svg xmlns="http://www.w3.org/2000/svg" viewBox="0 0 167.56 179.08"><defs><style>.cls-1{fill:#fff;stroke-linecap:round;stroke-linejoin:round;}.cls-1,.cls-2,.cls-3,.cls-4,.cls-5,.cls-6{stroke:#473421;stroke-width:8px;}.cls-2{fill:#d4de4e;}.cls-2,.cls-3,.cls-4,.cls-5,.cls-6{stroke-miterlimit:10;}.cls-3{fill:#b49c74;}.cls-4{fill:#d9c397;}.cls-5{fill:#78604f;}.cls-6{fill:none;}</style></defs><title>Ресурс 10</title><g id="Слой_2" data-name="Слой 2"><g id="Слой_1-2" data-name="Слой 1"><line class="cls-1" x1="119.49" y1="44.6" x2="119.49" y2="87.05"/><path class="cls-2" d="M37.11,70s-25.23-16.48.07-41.75C37.18,28.28,60.54,50.2,37.11,70Z"/><path class="cls-2" d="M119.81,47.32s-25.23-16.48.07-41.75C119.88,5.57,143.24,27.49,119.81,47.32Z"/><line class="cls-1" x1="139.53" y1="67.56" x2="73.27" y2="114.51"/><path class="cls-2" d="M132.87,72.48s.46-30.13,30.67-24.28C163.54,48.21,163.28,79.1,132.87,72.48Z"/><polyline class="cls-3" points="119.5 81.09 119.51 136.74 70.49 173.11 68.44 174.66 4 154.64 4 97.39 36.79 70.98 69.04 113.9"/><rect class="cls-4" x="47.81" y="47.21" width="61.3" height="56.79" transform="translate(186.41 90.27) rotate(143.8)"/><polygon class="cls-5" points="104.4 109.68 104.59 130.28 87.12 142.9 86.92 122.3 104.4 109.68"/><line class="cls-6" x1="70.98" y1="116.81" x2="4.7" y2="97.28"/><line class="cls-6" x1="98.64" y1="49.83" x2="47.68" y2="85.75"/><line class="cls-6" x1="108.67" y1="65.61" x2="58.53" y2="100.55"/><line class="cls-6" x1="119.92" y1="98.7" x2="69.78" y2="133.65"/><line class="cls-6" x1="119" y1="120.81" x2="68.86" y2="155.75"/><line class="cls-6" x1="68.97" y1="115.53" x2="68.97" y2="173.09"/><polygon class="cls-5" points="23.98 160.41 23.86 121.82 45.94 127.98 46.05 167.62 23.98 160.41"/></g></g></svg>