<svg xmlns="http://www.w3.org/2000/svg" viewBox="0 0 227.73 43.63"><defs><style>.cls-1{fill:#d4de4e;}.cls-2{fill:#473421;}</style></defs><title>Ресурс 1</title><g id="Слой_2" data-name="Слой 2"><g id="Слой_1-2" data-name="Слой 1"><path class="cls-1" d="M50.09,11A28.29,28.29,0,0,0,3.7,40.35a1.79,1.79,0,0,0,1.71,1.23h7.75A1.8,1.8,0,0,0,15,39.82l0-2.63v-6.7a1.78,1.78,0,0,0-1.78-1.78H10.66l8-6V17h1.23v4.76L30.34,13.8l.16-.12,0-.06,0,0,.1.08,19.84,15h-2.6a1.73,1.73,0,0,0-1.73,1.73l0,9.36A1.79,1.79,0,0,0,48,41.58h7.78a1.79,1.79,0,0,0,1.71-1.23A28.23,28.23,0,0,0,50.09,11Z"/><path class="cls-1" d="M28.79,36.65a.74.74,0,0,1-.74-.74v-5a2.43,2.43,0,0,1,4.87,0v5a.74.74,0,0,1-.74.74Z"/><path class="cls-2" d="M29.76,25.38a5.76,5.76,0,0,0-4.89,5.78v7.55a.73.73,0,0,0,.73.73h9.8a.73.73,0,0,0,.73-.73V31A5.64,5.64,0,0,0,29.76,25.38ZM29,36.13a.66.66,0,0,1-.66-.66V30.89a2.2,2.2,0,0,1,4.39,0v4.59a.66.66,0,0,1-.66.66Z"/><path class="cls-2" d="M61.23,31.6A30.61,30.61,0,0,0,0,31.6,31.24,31.24,0,0,0,2.3,43.19a.67.67,0,0,0,.62.41l13.88,0a.66.66,0,0,0,.66-.66l.15-16.12a.61.61,0,0,1,.24-.47s12-9.36,12.7-10h.07l12.76,10a.61.61,0,0,1,.24.47L43.77,43a.66.66,0,0,0,.66.66H58.31a.67.67,0,0,0,.62-.41A31.36,31.36,0,0,0,61.23,31.6ZM47.33,30.5a.61.61,0,0,1,.61-.61h4a.66.66,0,0,0,.4-1.18L31.54,13h0s-.64-.58-1-.58-.9.58-.9.58h0L21,19.55V15.92H17.51v6.26L8.77,28.8a.61.61,0,0,0,.37,1.09h4.09a.66.66,0,0,1,.66.66v6.69l0,2.62a.66.66,0,0,1-.66.65H5.43a.67.67,0,0,1-.64-.46,27.18,27.18,0,1,1,51.65,0,.67.67,0,0,1-.64.46H48a.66.66,0,0,1-.66-.66Z"/><path class="cls-2" d="M88.8,4.26V18.38H85.07V13H79.82v5.39H76.09V4.26h3.73V9.66h5.25V4.26Z"/><path class="cls-2" d="M92.17,18.38,97.72,4.26h4l5.55,14.12h-3.83l-.81-2.22H96.81L96,18.38Zm5.75-5.25h3.63L100.1,9.06a7.09,7.09,0,0,1-.36-1.43,7.07,7.07,0,0,1-.36,1.43Z"/><path class="cls-2" d="M116.94,4a9.64,9.64,0,0,1,4.1.89V8.37a5.5,5.5,0,0,0-3.45-1.15c-2.24,0-4.46,1.23-4.46,4.3,0,2.74,2.22,3.87,4.42,3.87a5.19,5.19,0,0,0,3.59-1.23v3.63a9.53,9.53,0,0,1-4.12.89c-3.87,0-7.73-2.12-7.73-7.16C109.3,6.19,113.13,4,116.94,4Z"/><path class="cls-2" d="M135.85,4.26V7.59h-4V18.38h-3.73V7.59h-4V4.26Z"/><path class="cls-2" d="M145.92,4c5,0,7.57,3.43,7.57,7.36s-2.52,7.36-7.57,7.36-7.57-3.43-7.57-7.36S140.87,4,145.92,4Zm0,3.43c-2.44,0-3.73,1.67-3.73,3.93s1.29,3.93,3.73,3.93,3.73-1.67,3.73-3.93S148.36,7.38,145.92,7.38Z"/><path class="cls-2" d="M156.13,18.38l3.81-5.1A4.16,4.16,0,0,1,157,9.12c0-3.53,2.72-4.86,5.79-4.86h6V18.38H165v-4.6h-1.31l-3.33,4.6Zm6.72-7.63H165V7.49h-2.18c-1.27,0-2,.54-2,1.63S161.57,10.75,162.84,10.75Z"/><path class="cls-2" d="M190.48,21.31V18.38h-17V4.26h3.73V15.05h3.63V4.26h3.73V15.05h3.63V4.26h3.73V15.05h1.82v6.25Z"/><path class="cls-2" d="M206.6,18.38V12.61c0-.77,0-1.65.08-2.32l-5.53,8.09h-3.53V4.26h3.73V10c0,.79,0,1.67-.08,2.34l5.53-8.11h3.53V18.38Z"/><path class="cls-2" d="M224,18.38V12.61c0-.77,0-1.65.08-2.32l-5.53,8.09H215V4.26h3.73V10c0,.79,0,1.67-.08,2.34l5.53-8.11h3.53V18.38Zm.71-15.84V0a6.08,6.08,0,0,1-3.33.85A6.08,6.08,0,0,1,218,0V2.54a5.53,5.53,0,0,0,3.33.93A5.53,5.53,0,0,0,224.7,2.54Z"/><path class="cls-2" d="M75.18,43.56V37.41h1.61C78.61,34.18,79,30.25,79,26.51H89.1V37.41h1.82v6.15H87.69V40.64H78.41v2.93Zm5.55-6.15h4.64V29.84H82.44A19.41,19.41,0,0,1,80.73,37.41Z"/><path class="cls-2" d="M101.39,26.21c5,0,7.57,3.43,7.57,7.36s-2.52,7.36-7.57,7.36-7.57-3.43-7.57-7.36S96.34,26.21,101.39,26.21Zm0,3.43c-2.44,0-3.73,1.67-3.73,3.93s1.29,3.93,3.73,3.93,3.73-1.67,3.73-3.93S103.83,29.64,101.39,29.64Z"/><path class="cls-2" d="M128.59,26.51V40.64h-3.73V33.13l-3,4.64h-2.14l-3-4.66v7.53h-3.73V26.51h3.53l4.3,6.62,4.3-6.62Z"/><path class="cls-2" d="M142.24,40.64V34.87c0-.77,0-1.65.08-2.32l-5.53,8.09h-3.53V26.51H137v5.77c0,.79,0,1.67-.08,2.34l5.53-8.11H146V40.64Z"/><path class="cls-2" d="M150.66,40.64V26.51h3.73v5.35h1.78l3.21-5.35h4.14l-4.44,6.88,4.64,7.24h-4.14l-3.43-5.45h-1.75v5.45Z"/></g></g></svg>