<svg xmlns="http://www.w3.org/2000/svg" viewBox="0 0 68.63 167.25"><defs><style>.cls-1{fill:#d4de4e;}.cls-2{fill:#473421;}.cls-3{fill:#fff;}</style></defs><title>Ресурс 8</title><g id="Слой_2" data-name="Слой 2"><g id="Слой_1-2" data-name="Слой 1"><path class="cls-1" d="M47.93,54.44s1.34,17.1,18.29,12.69C66.22,67.13,65,49.59,47.93,54.44Z"/><path class="cls-2" d="M61,70.14a14.24,14.24,0,0,1-8.47-2.56c-6.11-4.35-6.83-12.61-6.86-13l-.15-1.86,1.8-.51c5.74-1.63,10.55-1.13,14.29,1.49,6.2,4.34,6.88,12.88,6.9,13.24l.13,1.89-1.84.48A23.17,23.17,0,0,1,61,70.14Zm-10.44-14c.51,2.17,1.75,5.67,4.64,7.72,2.17,1.54,5,2,8.45,1.47-.5-2.23-1.74-5.86-4.67-7.9C56.8,56,54,55.52,50.54,56.16Z"/><path class="cls-1" d="M31.55,118.69s1.34,17.1,18.29,12.69C49.84,131.38,48.59,113.84,31.55,118.69Z"/><path class="cls-2" d="M44.6,134.39a14.24,14.24,0,0,1-8.47-2.56c-6.11-4.35-6.83-12.61-6.86-13L29.13,117l1.8-.51c5.74-1.63,10.55-1.13,14.29,1.49,6.2,4.34,6.88,12.88,6.9,13.24l.13,1.89-1.84.48A23.17,23.17,0,0,1,44.6,134.39Zm-10.44-14c.51,2.17,1.75,5.67,4.64,7.72,2.17,1.54,5,2,8.45,1.47-.5-2.23-1.74-5.86-4.67-7.9C40.42,120.2,37.6,119.77,34.16,120.41Z"/><path class="cls-1" d="M47.83,55.67s17.78-1.13,13.46-18.8C61.29,36.87,43.05,37.9,47.83,55.67Z"/><path class="cls-2" d="M46.11,58.06l-.48-1.8c-1.6-6-1-10.92,1.75-14.74,4.58-6.34,13.41-6.9,13.78-6.93l1.89-.11.45,1.84c1.46,6,.77,10.92-2,14.73-4.59,6.25-13.14,6.86-13.5,6.88ZM59.48,39.44c-2.33.48-6.21,1.71-8.41,4.77-1.62,2.25-2.12,5.23-1.47,8.88,2.27-.49,6-1.72,8.22-4.75C59.47,46.07,60,43.09,59.48,39.44Z"/><line class="cls-3" x1="22.03" y1="43.6" x2="30.33" y2="49.32"/><path class="cls-2" d="M30.33,51.65A2.32,2.32,0,0,1,29,51.24l-8.3-5.72a2.33,2.33,0,1,1,2.65-3.84l8.3,5.72a2.33,2.33,0,0,1-1.33,4.25Z"/><path class="cls-1" d="M20.87,43.23S20.6,25,2.35,28.57C2.35,28.57,2.5,47.24,20.87,43.23Z"/><path class="cls-2" d="M16,46.13A14.94,14.94,0,0,1,6.41,43C.17,38,0,29,0,28.59l0-1.94,1.9-.37c6.15-1.19,11.18-.25,14.94,2.8,6.15,5,6.36,13.75,6.36,14.12l0,1.91-1.86.41A25.23,25.23,0,0,1,16,46.13ZM4.88,30.55C5.25,33,6.31,37,9.34,39.37c2.22,1.77,5.24,2.42,9,1.94-.39-2.34-1.47-6.22-4.44-8.63C11.65,30.88,8.63,30.16,4.88,30.55Z"/><path class="cls-2" d="M31.51,82a2.28,2.28,0,0,1-1.88-3.57L44.41,56.92a2.28,2.28,0,1,1,3.76,2.58L33.39,81A2.28,2.28,0,0,1,31.51,82Z"/><line class="cls-3" x1="32.31" y1="30.6" x2="32.31" y2="164.97"/><path class="cls-2" d="M31,167.25A2.28,2.28,0,0,1,28.68,165V30.6a2.28,2.28,0,0,1,4.56,0V165A2.28,2.28,0,0,1,31,167.25Z"/><path class="cls-1" d="M31.13,28.44s14.87-10.5-1-25.2C30.17,3.24,16.55,17,31.13,28.44Z"/><path class="cls-2" d="M31.05,31.35l-1.37-1.07c-4.74-3.72-7.29-8.1-7.6-13C21.56,8.72,28.23,1.89,28.52,1.6L30.11,0l1.65,1.54c5.68,5.27,8.37,10.73,8,16.21-.52,7.73-7,12.4-7.29,12.6ZM30.34,6.7c-1.6,2.18-3.86,6.07-3.59,10.32a12.53,12.53,0,0,0,4.37,8.35,12.79,12.79,0,0,0,4-8C35.33,13.95,33.72,10.36,30.34,6.7Z"/></g></g></svg>